<svg xmlns="http://www.w3.org/2000/svg" width="86.422" height="86.005" viewBox="0 0 86.422 86.005"><g transform="translate(-2 -0.994)"><path d="M9,17.41V42.4H33.989l-5.211-5.211H14.211V22.621Z" transform="translate(11.24 26.36)" fill="#5c53d8"/><path d="M87.651,82.543,80.172,74.96v6.827H7.212V70.974h5.211V66.8H7.212V49.476h5.211V45.307H7.212V28.63h5.211V24.461H7.212V9.895L48.747,51.2V43.848L6.456,1.765A2.606,2.606,0,0,0,2,3.615V84.393A2.606,2.606,0,0,0,4.606,87H85.8a2.606,2.606,0,0,0,1.85-4.456Z" fill="#5c53d8"/><path d="M27.211,72.6H37.634a5.211,5.211,0,0,0,5.211-5.211V17.1L36.853,6.076a5.238,5.238,0,0,0-9.172.208L22,17.15V67.389A5.211,5.211,0,0,0,27.211,72.6Zm0-54.2,5.055-9.824,5.368,9.85V56.966H27.211Zm0,42.812H37.634v6.358H27.211Z" transform="translate(32.115 3.975)" fill="#5c53d8"/></g></svg>