<svg xmlns="http://www.w3.org/2000/svg" width="126.873" height="79.171" viewBox="0 0 126.873 79.171"><path d="M102.71,44.378A38.239,38.239,0,0,1,89.77,69.143,38.169,38.169,0,0,1,63.46,79.172a38.913,38.913,0,0,1-18.448-4.58q-15.848,4.954-27.8,4.58T1.551,72.736Q-2.412,66.546,3.9,56.207t20.3-21.36a38.079,38.079,0,0,1,12.94-24.825A38.343,38.343,0,0,1,63.46.053a38.913,38.913,0,0,1,18.448,4.58Q97.756-.317,109.7.053T125.369,6.37q3.963,6.313-2.354,16.592T102.71,44.378ZM16.9,67.04q1.856,3.342,7.552,4.086a37.214,37.214,0,0,0,13.621-1.239A37.63,37.63,0,0,1,24.707,47.23Q13.069,60.353,16.9,67.04Zm93.11-54.975q-1.856-3.342-7.552-4.023A39.984,39.984,0,0,0,88.842,9.218a38.1,38.1,0,0,1,13.371,22.658q11.638-13,7.8-19.811Z" transform="translate(-0.023 -0.028)" fill="#5c53d8"/></svg>